<svg xmlns="http://www.w3.org/2000/svg" viewBox="0 0 500 500"><g id="freepik--Floor--inject-58"><path d="M91,410.15c87.29,45.6,228.81,45.6,316.09,0s87.29-119.53,0-165.13S178.29,199.43,91,245,3.72,364.56,91,410.15Z" style="fill:#f5f5f5"></path></g><g id="freepik--Plant--inject-58"><path d="M260.48,219.64c2.54.05,6.74-3.24,7.38-7.32s1.85-7.3,7.66-9.5,9.08-3.2,10.94-8.26-1-10.76-1.81-15.07,3.18-9.33,9-14.07,9.18-9.74,4-12.74-11.64-1.74-17.29,1.89-10.08,8.39-17,7.76-10.83,2.33-12.19,7.78.61,12.36-4.55,14.07v23.15Z" style="fill:#3AA6B9"></path><path d="M250,209.2l-.11,0a.5.5,0,0,1-.38-.59c5.29-22.9,29.17-48.25,42.07-53.51a.5.5,0,1,1,.38.92c-12.71,5.19-36.25,30.2-41.47,52.81A.51.51,0,0,1,250,209.2Z" style="fill:#fff"></path><path d="M263.3,181.83a.5.5,0,0,1-.49-.42,33.42,33.42,0,0,0-4.07-11,.51.51,0,0,1,.16-.69.5.5,0,0,1,.69.16,33.77,33.77,0,0,1,4.2,11.41.48.48,0,0,1-.41.57Z" style="fill:#fff"></path><path d="M259.17,188.79a.51.51,0,0,1-.49-.37.5.5,0,0,1,.36-.61c7.86-2.08,17.79-.09,18.21,0a.5.5,0,0,1-.2,1c-.1,0-10.13-2-17.76,0A.25.25,0,0,1,259.17,188.79Z" style="fill:#fff"></path></g><g id="freepik--Clouds--inject-58"><path d="M347.55,85.11l3.83,1.47V78.14c0-6.7,5.34-8.31,11.14-5h0c5.8,3.35,10.5,11.49,10.5,18.19V92.6a5.63,5.63,0,0,1,4.88.75h0a16.71,16.71,0,0,1,7.55,13.09V107l5.35,3.09a11,11,0,0,1,5,8.62c0,3.17-2.22,4.46-5,2.87l-43.25-25a11,11,0,0,1-5-8.62C342.57,84.81,344.8,83.52,347.55,85.11Z" style="fill:#ebebeb"></path><path d="M391,87.91l7,4c0-.31-.06-.61-.06-.92V89c0-3.58,2.52-5,5.62-3.24A10.76,10.76,0,0,1,406.82,89c.51-4.51,4-6.19,8.34-3.71,4.64,2.68,8.41,9.2,8.41,14.56v3a8,8,0,0,1-.71,3.49l5.77,3.33a6.89,6.89,0,0,1,3.12,5.4c0,2-1.4,2.79-3.12,1.8L391,95.11a6.89,6.89,0,0,1-3.12-5.4C387.84,87.72,389.24,86.92,391,87.91Z" style="fill:#ebebeb"></path></g><g id="freepik--Sign--inject-58"><polygon points="249.13 90.95 285.61 69.89 293.73 74.58 285.61 88.65 249.13 109.71 249.13 90.95" style="fill:#455a64"></polygon><polygon points="285.61 69.89 281.54 67.54 244.99 88.65 249.13 90.95 285.61 69.89" style="fill:#37474f"></polygon><path d="M254.42,100.38a2.42,2.42,0,0,1-1,.18c-.09,0-.12,0-.12-.07a.35.35,0,0,1,0-.14l.31-.66a.42.42,0,0,1,.1-.15l.13,0a2.87,2.87,0,0,0,.8-.13,4.19,4.19,0,0,0,.93-.41,3.78,3.78,0,0,0,1-.76,1.4,1.4,0,0,0,.32-.87.48.48,0,0,0-.12-.38.54.54,0,0,0-.36-.08,5.89,5.89,0,0,0-.76.11l-.21,0a6.26,6.26,0,0,1-1,.11,1,1,0,0,1-.66-.21.92.92,0,0,1-.26-.74,2.79,2.79,0,0,1,.65-1.69,5.72,5.72,0,0,1,1.71-1.45,6.26,6.26,0,0,1,1.12-.52,1.9,1.9,0,0,1,.82-.1c.07,0,.11,0,.11.1a.24.24,0,0,1,0,.12l-.3.66a.55.55,0,0,1-.09.14.23.23,0,0,1-.12,0,2.78,2.78,0,0,0-1.49.48,2.93,2.93,0,0,0-.89.73,1.36,1.36,0,0,0-.3.85.4.4,0,0,0,.5.47,6.91,6.91,0,0,0,.78-.12l.24,0a5.56,5.56,0,0,1,1.06-.12.82.82,0,0,1,.6.23,1.08,1.08,0,0,1,.21.75,2.67,2.67,0,0,1-.61,1.62,5.55,5.55,0,0,1-1.71,1.45A7.63,7.63,0,0,1,254.42,100.38Z" style="fill:#fff"></path><path d="M259.61,96.66c-.56-.26-.83-.92-.83-2a5.44,5.44,0,0,1,.83-2.93A6.49,6.49,0,0,1,262,89.52c1-.59,1.81-.76,2.36-.5s.84.92.84,2a5.46,5.46,0,0,1-.84,2.94A6.51,6.51,0,0,1,262,96.16C261,96.76,260.16,96.92,259.61,96.66Zm3.86-2.86a4.22,4.22,0,0,0,.52-2.12c0-.8-.17-1.3-.52-1.52s-.84-.13-1.49.25a4,4,0,0,0-1.51,1.48A4.32,4.32,0,0,0,260,94c0,.8.17,1.3.51,1.52s.85.13,1.51-.25A3.85,3.85,0,0,0,263.47,93.8Z" style="fill:#fff"></path><path d="M267.4,92.74a1.17,1.17,0,0,1-1-.24,1.42,1.42,0,0,1-.35-1.07V87.66a.53.53,0,0,1,.08-.31.68.68,0,0,1,.26-.24l.5-.28a.33.33,0,0,1,.27-.08s.08.1.08.22v3.79c0,.49.14.78.43.86a1.65,1.65,0,0,0,1.22-.33,3.64,3.64,0,0,0,1.21-1.07,2.3,2.3,0,0,0,.43-1.35v-3.8a.62.62,0,0,1,.08-.31.8.8,0,0,1,.27-.24l.49-.28c.24-.14.36-.1.36.13v3.77a3.37,3.37,0,0,1-.35,1.48,5.56,5.56,0,0,1-1,1.41,6.7,6.7,0,0,1-1.48,1.14A3.94,3.94,0,0,1,267.4,92.74Z" style="fill:#fff"></path><path d="M274.47,88.73c-.06,0-.09-.09-.09-.21v-5.1l-1.64.94c-.12.07-.2.1-.25.07s-.07-.09-.07-.21V84a.56.56,0,0,1,.07-.3.81.81,0,0,1,.25-.23l4.48-2.58a.34.34,0,0,1,.26-.07s.07.1.07.21v.26a.52.52,0,0,1-.07.29.75.75,0,0,1-.26.23l-1.64.94v5.11a.61.61,0,0,1-.08.3.62.62,0,0,1-.28.24l-.48.29C274.61,88.73,274.52,88.75,274.47,88.73Z" style="fill:#fff"></path><path d="M278.36,86.48c-.05,0-.07-.1-.07-.21V80.59a.62.62,0,0,1,.07-.31.9.9,0,0,1,.27-.23l.5-.29c.12-.07.21-.1.27-.07s.08.09.08.21v2.36l3.07-1.77V78.13a.62.62,0,0,1,.08-.31.75.75,0,0,1,.28-.24l.48-.28c.13-.08.22-.1.27-.08s.09.1.09.22v5.68a.55.55,0,0,1-.08.29.78.78,0,0,1-.28.25l-.48.28c-.13.07-.22.1-.28.07s-.08-.09-.08-.2V81.39l-3.07,1.78v2.41a.52.52,0,0,1-.08.3.72.72,0,0,1-.27.24l-.5.29A.36.36,0,0,1,278.36,86.48Z" style="fill:#fff"></path><polygon points="244.91 112.03 208.43 90.97 200.3 95.66 208.43 109.73 244.91 130.79 244.91 112.03" style="fill:#455a64"></polygon><polygon points="208.43 90.97 212.49 88.63 249.05 109.73 244.91 112.03 208.43 90.97" style="fill:#37474f"></polygon><path d="M211.88,106a.58.58,0,0,1-.12-.25l-1.7-6.89a.22.22,0,0,1,0-.09c0-.09.06-.1.2,0l.88.51a.88.88,0,0,1,.22.17.52.52,0,0,1,.09.2l1.08,4.74,1.3-2.88a.11.11,0,0,1,.1-.09s.1,0,.2.07l.5.29a.56.56,0,0,1,.2.16.69.69,0,0,1,.1.21l1.31,4.38,1.06-3.5c0-.06.05-.09.1-.09a.39.39,0,0,1,.22.08l.88.51c.14.08.21.17.21.26a.17.17,0,0,1,0,.08L217,108.71c0,.07-.07.11-.12.11a.48.48,0,0,1-.24-.08l-.58-.34a.92.92,0,0,1-.23-.18.79.79,0,0,1-.13-.26l-1.3-4.5-1.3,3c0,.07-.07.11-.12.11a.6.6,0,0,1-.24-.08l-.59-.35A.69.69,0,0,1,211.88,106Z" style="fill:#fff"></path><path d="M219.86,110.53a.56.56,0,0,1-.09-.31v-5.68q0-.18.09-.21c.06,0,.16,0,.31.1l4.49,2.59a.89.89,0,0,1,.3.25.56.56,0,0,1,.08.3v.25c0,.12,0,.19-.08.21s-.15,0-.3-.09l-3.51-2v1.82l2.55,1.47a.88.88,0,0,1,.3.25.49.49,0,0,1,.09.3V110c0,.11,0,.18-.09.2a.45.45,0,0,1-.3-.09l-2.55-1.47v1.82l3.5,2a.83.83,0,0,1,.31.26.56.56,0,0,1,.08.3v.25c0,.12,0,.18-.08.2a.58.58,0,0,1-.31-.1l-4.48-2.59A.83.83,0,0,1,219.86,110.53Z" style="fill:#fff"></path><path d="M227.11,114.79a7.54,7.54,0,0,1-1.18-1.09c-.1-.11-.14-.18-.14-.23a.1.1,0,0,1,0-.09l.36-.28a.09.09,0,0,1,.11,0,.52.52,0,0,1,.15.13,7.69,7.69,0,0,0,.92.86,8.69,8.69,0,0,0,1.07.75,2.78,2.78,0,0,0,1.11.43c.25,0,.37-.15.37-.47a1,1,0,0,0-.14-.53,2.5,2.5,0,0,0-.41-.52q-.27-.28-.87-.84l-.25-.22c-.47-.44-.86-.82-1.16-1.14a5.15,5.15,0,0,1-.76-1,2.11,2.11,0,0,1-.31-1.06c0-.57.25-.87.75-.89a4,4,0,0,1,2,.68,12,12,0,0,1,1.29.87,5.87,5.87,0,0,1,.94.92.42.42,0,0,1,.13.23.08.08,0,0,1,0,.08l-.35.29a.1.1,0,0,1-.1,0,.79.79,0,0,1-.15-.14,7,7,0,0,0-1.71-1.38,2.2,2.2,0,0,0-1-.37c-.23,0-.34.17-.34.48a1.07,1.07,0,0,0,.14.55,2.74,2.74,0,0,0,.43.54c.18.19.49.47.91.85l.26.25c.53.48.94.89,1.24,1.21a4.65,4.65,0,0,1,.68,1,2.25,2.25,0,0,1,.25,1c0,.54-.24.83-.7.87a3.8,3.8,0,0,1-2-.68A14.3,14.3,0,0,1,227.11,114.79Z" style="fill:#fff"></path><path d="M234,118.7a.48.48,0,0,1-.1-.31v-5.11L232,112.19a1,1,0,0,1-.3-.24.56.56,0,0,1-.08-.3v-.25c0-.12,0-.19.08-.22s.16,0,.3.1l5.17,3a1,1,0,0,1,.3.25.53.53,0,0,1,.08.31v.25c0,.12,0,.19-.08.2s-.16,0-.3-.1l-1.9-1.09v5.11c0,.11,0,.18-.09.2a.46.46,0,0,1-.32-.1l-.56-.32A.94.94,0,0,1,234,118.7Z" style="fill:#fff"></path><path d="M249.12,71.49a2.09,2.09,0,0,0-1.21-1.65,6.48,6.48,0,0,0-5.85,0,2.09,2.09,0,0,0-1.21,1.65h0V291.65h8.29V71.49Z" style="fill:#455a64"></path></g><g id="freepik--Map--inject-58"><path d="M322.17,237.82l-48.75-14.07-50.51-42.62a4.59,4.59,0,0,0-4.89-.44L97.28,250.4a2,2,0,0,0-.31,3.43l50.52,42.62,48.75,14.07L249,355.08l54,17.83a7.73,7.73,0,0,0,5.45-.56l5.53-3.2,115.21-66.51c1.43-.82,1.32-1.92-.25-2.44l-54-17.82Z" style="fill:#455a64"></path><polygon points="273.42 223.75 147.49 296.45 196.24 310.52 322.17 237.82 273.42 223.75" style="fill:#455a64"></polygon><path d="M249,355.08l54,17.83a7.68,7.68,0,0,0,5.45-.57l120.74-69.7c1.43-.82,1.32-1.92-.25-2.44l-54-17.82Z" style="fill:#455a64"></path><polygon points="265.29 228.44 219.09 189.46 109.41 252.78 155.62 291.76 265.29 228.44" style="fill:#e0e0e0"></polygon><polygon points="314.04 242.51 204.37 305.83 155.62 291.76 265.29 228.44 314.04 242.51" style="fill:#e0e0e0"></polygon><g style="opacity:0.5;mix-blend-mode:multiply"><polygon points="314.04 242.51 204.37 305.83 155.62 291.76 265.29 228.44 314.04 242.51" style="fill:#e0e0e0"></polygon></g><polygon points="366.84 287.07 257.17 350.39 204.37 305.83 314.04 242.51 366.84 287.07" style="fill:#e0e0e0"></polygon><polygon points="413.38 302.42 303.7 365.74 257.17 350.39 366.84 287.07 413.38 302.42" style="fill:#e0e0e0"></polygon><g style="opacity:0.5;mix-blend-mode:multiply"><polygon points="413.38 302.42 303.7 365.74 257.17 350.39 366.84 287.07 413.38 302.42" style="fill:#e0e0e0"></polygon></g><polygon points="136.16 275.35 151.56 265.97 127.19 242.51 109.41 252.78 136.16 275.35" style="fill:#f0f0f0"></polygon><polygon points="155.62 263.62 131.25 240.17 167.81 218.98 192.18 242.51 155.62 263.62" style="fill:#f0f0f0"></polygon><polygon points="171.87 216.72 196.24 240.17 208.43 233.13 204.37 197.95 171.87 216.72" style="fill:#f0f0f0"></polygon><polygon points="212.49 230.79 208.43 195.61 219.09 189.46 258.69 222.87 212.49 230.79" style="fill:#f0f0f0"></polygon><polygon points="169.84 283.56 157.65 271.83 142.42 280.62 155.62 291.76 169.84 283.56" style="fill:#f0f0f0"></polygon><polygon points="161.71 269.48 173.9 281.21 210.42 260.13 198.26 248.38 161.71 269.48" style="fill:#f0f0f0"></polygon><polygon points="214.52 257.76 202.33 246.03 213.49 239.59 236.86 235.48 236.86 244.86 214.52 257.76" style="fill:#f0f0f0"></polygon><polygon points="240.92 242.51 240.92 234.76 260.23 231.37 240.92 242.51" style="fill:#f0f0f0"></polygon><path d="M261.24,249.55c-4.49-1.3-10.86-.77-14.22,1.17s-2.46,4.57,2,5.86,10.85.78,14.22-1.17S265.72,250.84,261.24,249.55Z" style="fill:#e6e6e6"></path><path d="M248,247a13.58,13.58,0,0,0-2.52,1.11c-3.54,2-3.63,4.7-3.5,5.75a4.89,4.89,0,0,0,.57,1.76l-9.79,5.64-18.28-3.51,22.34-12.9Z" style="fill:#e6e6e6"></path><polygon points="240.92 242.51 253.45 244.68 259.87 245.57 281.54 233.13 265.29 228.44 240.92 242.51" style="fill:#e6e6e6"></polygon><path d="M314,242.51l-30.5,17.61-18.17-2.49c2.95-2,3-4.38,2.9-5.37a5.07,5.07,0,0,0-.56-1.75l24.67-14.25Z" style="fill:#e6e6e6"></path><path d="M279.87,262.24l-14.57,8.41L240.86,266,251,260.12l.08-.05h0a25.59,25.59,0,0,0,3.44.23,24.43,24.43,0,0,0,6.95-.95h0Z" style="fill:#e6e6e6"></path><polygon points="210.42 260.13 173.9 281.21 192.18 284.73 228.71 263.63 210.42 260.13" style="fill:#e6e6e6"></polygon><polygon points="265.3 270.66 240.88 265.97 204.35 287.07 228.74 291.76 265.3 270.66" style="fill:#e6e6e6"></polygon><polygon points="169.84 283.56 155.62 291.76 171.87 296.45 188.12 287.07 169.84 283.56" style="fill:#e6e6e6"></polygon><polygon points="224.68 294.11 200.29 289.42 182.7 299.58 204.37 305.83 224.68 294.11" style="fill:#e6e6e6"></polygon><polygon points="289.67 270.66 303.24 295.65 338.41 275.35 305.92 261.27 289.67 270.66" style="fill:#f0f0f0"></polygon><polygon points="224.68 294.11 228.74 301.14 227.47 325.33 204.37 305.83 224.68 294.11" style="fill:#f0f0f0"></polygon><polygon points="228.74 291.76 232.8 298.8 283.74 269.39 279.87 262.24 228.74 291.76" style="fill:#f0f0f0"></polygon><polygon points="283.54 260.13 287.64 267.14 320.64 248.08 314.04 242.51 283.54 260.13" style="fill:#f0f0f0"></polygon><polygon points="285.61 273 234.83 302.32 233.52 330.44 237.37 333.68 299.21 297.98 285.61 273" style="fill:#f0f0f0"></polygon><polygon points="309.98 258.93 323.94 250.87 347.04 270.36 342.48 273 309.98 258.93" style="fill:#f0f0f0"></polygon><polygon points="243.97 339.25 261.23 329.29 269.36 343.36 257.17 350.39 243.97 339.25" style="fill:#f0f0f0"></polygon><rect x="268.1" y="321.16" width="18.76" height="16.25" transform="translate(-127.47 182.86) rotate(-30)" style="fill:#f0f0f0"></rect><polygon points="285.61 315.22 303.1 305.11 310.88 319.38 293.73 329.29 285.61 315.22" style="fill:#f0f0f0"></polygon><polygon points="314.88 317.08 307.12 302.8 342.48 282.38 360.25 281.5 366.84 287.07 314.88 317.08" style="fill:#f0f0f0"></polygon><polygon points="350.34 273.15 342.48 277.69 355.15 277.2 350.34 273.15" style="fill:#f0f0f0"></polygon><path d="M334.6,324.74c-4.48-1.29-10.85-.77-14.21,1.17s-2.46,4.57,2,5.87,10.85.77,14.22-1.17S339.09,326,334.6,324.74Z" style="fill:#e6e6e6"></path><polygon points="269.36 343.36 285.61 348.05 272.68 355.51 257.17 350.39 269.36 343.36" style="fill:#e6e6e6"></polygon><polygon points="273.42 341.01 289.67 345.7 305.92 336.32 289.67 331.63 273.42 341.01" style="fill:#e6e6e6"></polygon><path d="M293.73,329.29,310,334l5.41-3.13s-2.57-5.74,5-8.14l-9.55-3.32Z" style="fill:#e6e6e6"></path><path d="M314.88,317.08l10,3.6a33.79,33.79,0,0,1,8.12,0l29.79-17.19-16.25-4.69Z" style="fill:#e6e6e6"></path><polygon points="350.6 296.45 366.85 301.14 382.36 292.19 366.84 287.07 350.6 296.45" style="fill:#e6e6e6"></polygon><polygon points="392.7 295.6 366.85 310.52 387.16 317.56 413.38 302.42 392.7 295.6" style="fill:#e6e6e6"></polygon><path d="M362.79,312.87,341.43,325.2s2.62,4.07-.73,7.29l14,3.83,28.44-16.41-19.82-6.76" style="fill:#e6e6e6"></path><path d="M350.6,338.67,336.17,335s-6.95,2.72-12.8.6l-21.52,12.42-4.06,15.75,5.91,1.94Z" style="fill:#e6e6e6"></path><polygon points="297.79 350.39 294.39 362.67 283.02 358.92 297.79 350.39" style="fill:#e6e6e6"></polygon><path d="M279.87,312.9a1,1,0,0,1-.86-.49,1,1,0,0,1,.35-1.37l21.39-12.61L280.9,262.18l-18.68-2.94a1,1,0,0,1-.37-1.84c2.77-1.69,4.16-3.29,4-4.64s-1.72-2.64-4.3-3.64c-3.84-1.48-11.78-1-15.21,1.67a3.81,3.81,0,0,0-1.11,5.24,1,1,0,0,1-.32,1.41l-10.3,6.23a1.05,1.05,0,0,1-.69.13l-21.65-3.88a1.09,1.09,0,0,1-.53-.28l-21.84-22a1,1,0,0,1,0-1.41,1,1,0,0,1,1.42,0L213,258l21,3.76,9.18-5.55a5.73,5.73,0,0,1,2-7c4-3.08,12.76-3.65,17.16-2,2,.76,5.32,2.46,5.57,5.32.16,1.7-.81,3.4-2.89,5.07l16.7,2.63a1,1,0,0,1,.73.51L303,298.32a1,1,0,0,1-.37,1.34l-22.22,13.1A1,1,0,0,1,279.87,312.9Z" style="fill:#3AA6B9"></path><path d="M197.22,206.44l-3.42-2h0c-1.64-1.09-3.9-1-6.41.4-5,2.87-9,10.17-9,16.29v1.4c0,6.12,8.23,12.78,8.23,12.78l3.37,1.91s-2-2.31-1.79-2.78c2.2-4.53,8.21-17.32,8.21-22.32v-1.39a10.84,10.84,0,0,0-.39-3l.39.22Zm-9.83,14.05c-2.49,1.43-4.51.27-4.51-2.6,1.34-.21,4.71-6,4.51-7.81,2.49-1.43,4.5-.27,4.5,2.6A10,10,0,0,1,187.39,220.49Z" style="fill:#3AA6B9"></path><path d="M197.22,206.44l-3.42-2h0c-1.64-1.09-3.9-1-6.41.4-5,2.87-9,10.17-9,16.29v1.4c0,6.12,8.23,12.78,8.23,12.78l3.37,1.91s-2-2.31-1.79-2.78c2.2-4.53,8.21-17.32,8.21-22.32v-1.39a10.84,10.84,0,0,0-.39-3l.39.22Zm-9.83,14.05c-2.49,1.43-4.51.27-4.51-2.6,1.34-.21,4.71-6,4.51-7.81,2.49-1.43,4.5-.27,4.5,2.6A10,10,0,0,1,187.39,220.49Z" style="fill:#3AA6B9"></path><g style="opacity:0.2"><path d="M197.22,206.44l-3.42-2h0c-1.64-1.09-3.9-1-6.41.4-5,2.87-9,10.17-9,16.29v1.4c0,6.12,8.23,12.78,8.23,12.78l3.37,1.91s-2-2.31-1.79-2.78c2.2-4.53,8.21-17.32,8.21-22.32v-1.39a10.84,10.84,0,0,0-.39-3l.39.22Zm-9.83,14.05c-2.49,1.43-4.51.27-4.51-2.6,1.34-.21,4.71-6,4.51-7.81,2.49-1.43,4.5-.27,4.5,2.6A10,10,0,0,1,187.39,220.49Z"></path></g><path d="M200,212.85c0-6.12-4-8.76-9-5.89s-9,10.17-9,16.3v1.39c0,4.72,5.34,10.19,7.8,12.46a1.22,1.22,0,0,0,1.92-.36c2.12-4.34,8.3-17.43,8.3-22.5Zm-9,9.72c-2.49,1.44-4.5.27-4.5-2.6a10,10,0,0,1,4.5-7.81c2.49-1.43,4.51-.27,4.51,2.61A10,10,0,0,1,191,222.57Z" style="fill:#3AA6B9"></path><path d="M286.22,282.44l-3.42-2h0c-1.64-1.09-3.9-1.05-6.41.4-5,2.87-9,10.17-9,16.29v1.4c0,6.12,8.23,12.78,8.23,12.78l3.37,1.91s-2-2.31-1.79-2.78c2.2-4.53,8.21-17.32,8.21-22.32v-1.39a10.84,10.84,0,0,0-.39-3l.39.22Zm-9.83,14.05c-2.49,1.43-4.51.27-4.51-2.6,1.34-.21,4.71-6,4.51-7.81,2.49-1.43,4.5-.27,4.5,2.6A10,10,0,0,1,276.39,296.49Z" style="fill:#3AA6B9"></path><path d="M286.22,282.44l-3.42-2h0c-1.64-1.09-3.9-1.05-6.41.4-5,2.87-9,10.17-9,16.29v1.4c0,6.12,8.23,12.78,8.23,12.78l3.37,1.91s-2-2.31-1.79-2.78c2.2-4.53,8.21-17.32,8.21-22.32v-1.39a10.84,10.84,0,0,0-.39-3l.39.22Zm-9.83,14.05c-2.49,1.43-4.51.27-4.51-2.6,1.34-.21,4.71-6,4.51-7.81,2.49-1.43,4.5-.27,4.5,2.6A10,10,0,0,1,276.39,296.49Z" style="fill:#3AA6B9"></path><g style="opacity:0.2"><path d="M286.22,282.44l-3.42-2h0c-1.64-1.09-3.9-1.05-6.41.4-5,2.87-9,10.17-9,16.29v1.4c0,6.12,8.23,12.78,8.23,12.78l3.37,1.91s-2-2.31-1.79-2.78c2.2-4.53,8.21-17.32,8.21-22.32v-1.39a10.84,10.84,0,0,0-.39-3l.39.22Zm-9.83,14.05c-2.49,1.43-4.51.27-4.51-2.6,1.34-.21,4.71-6,4.51-7.81,2.49-1.43,4.5-.27,4.5,2.6A10,10,0,0,1,276.39,296.49Z"></path></g><path d="M289,288.85c0-6.12-4-8.76-9-5.89s-9,10.17-9,16.3v1.39c0,4.72,5.34,10.19,7.8,12.46a1.22,1.22,0,0,0,1.92-.36c2.12-4.34,8.3-17.43,8.3-22.5Zm-9,9.72c-2.49,1.44-4.5.27-4.5-2.6a10,10,0,0,1,4.5-7.81c2.49-1.43,4.51-.27,4.51,2.61A10,10,0,0,1,280,298.57Z" style="fill:#3AA6B9"></path></g><g id="freepik--Locators--inject-58"><path d="M355.3,165.37l-.22-.13-6.86-3.94a9.49,9.49,0,0,0-5.36-1.57,16,16,0,0,0-7.9,2.41c-10.3,5.94-18.64,21-18.64,33.7v2.88c0,12.67,17,26.44,17,26.44l6.93,3.92h0c-.23-.27-4.17-4.79-3.7-5.74,4.56-9.36,17-35.81,17-46.15v-2.88a22.8,22.8,0,0,0-.79-6.19l.8.46Zm-12.89,33.35c-4.57,2.64-8.36,1.05-9.16-3.5-4.33,1.58-7.61-.91-7.61-6.18,2.77-.44,9.73-12.33,9.32-16.14,4.56-2.64,8.35-1.05,9.15,3.5,4.34-1.58,7.62.91,7.62,6.18C351.73,188.52,347.56,195.75,342.41,198.72Z" style="fill:#263238"></path><path d="M355.3,165.37l-.22-.13c-3.33-1.87-7.78-1.62-12.67,1.2-7.37,4.26-13.75,13.21-16.77,22.6a36.51,36.51,0,0,0-1.87,11.1V203c0,9.76,11.05,21.08,16.14,25.77a2.4,2.4,0,0,0,.37.28h0a2.5,2.5,0,0,0,3.56-1c4.39-9,17.18-36.06,17.18-46.55v-2.89C361.05,172.11,358.85,167.5,355.3,165.37Zm-22.05,29.85a10.13,10.13,0,0,1-.16-1.88c0-5.94,4.17-13.17,9.32-16.14a11.23,11.23,0,0,1,1.7-.8c4.34-1.58,7.62.91,7.62,6.18,0,5.94-4.17,13.17-9.32,16.14C337.84,201.36,334.05,199.77,333.25,195.22Z" style="fill:#455a64"></path><path d="M345.46,174a13.45,13.45,0,0,0-2,1c-6.23,3.59-11.27,12.32-11.27,19.5a11.73,11.73,0,0,0,.2,2.28c1,5.5,5.55,7.42,11.07,4.23,6.22-3.59,11.27-12.33,11.27-19.51C354.68,175.09,350.71,172.08,345.46,174Z" style="fill:#263238"></path><path d="M344.19,176.81l1.88,4a.44.44,0,0,0,.62.24l4.23-1.62c.67-.25.93.69.45,1.6l-3.06,5.74a1.88,1.88,0,0,0-.23,1.1l.72,5.19c.11.83-.59,1.91-1.19,1.84l-3.78-.47a.94.94,0,0,0-.76.44l-3.78,4.83c-.6.77-1.3.49-1.18-.46l.72-6a.9.9,0,0,0-.24-.83l-3-2.21c-.49-.35-.22-1.6.45-2.12l4.22-3.26a1.91,1.91,0,0,0,.62-1l1.89-6.19C343,176.67,343.89,176.17,344.19,176.81Z" style="fill:#3AA6B9"></path><path d="M398.82,190.44l-.22-.13-6.86-3.94a9.49,9.49,0,0,0-5.36-1.57,16,16,0,0,0-7.9,2.41c-10.3,5.94-18.64,21-18.64,33.7v2.88c0,12.67,17,26.44,17,26.44l6.93,3.92h0c-.23-.27-4.17-4.79-3.7-5.74,4.56-9.36,17-35.81,17-46.15v-2.88a22.8,22.8,0,0,0-.79-6.19l.8.46Zm-12.89,33.35c-4.57,2.64-8.36,1.05-9.16-3.5-4.33,1.58-7.61-.91-7.61-6.18,2.77-.44,9.73-12.33,9.32-16.14,4.56-2.64,8.35-1.05,9.15,3.5,4.34-1.58,7.62.91,7.62,6.18C395.25,213.59,391.08,220.82,385.93,223.79Z" style="fill:#263238"></path><path d="M398.82,190.44l-.22-.13c-3.33-1.87-7.78-1.62-12.67,1.2-7.37,4.26-13.75,13.21-16.77,22.6a36.51,36.51,0,0,0-1.87,11.1v2.89c0,9.76,11,21.08,16.14,25.77a2.4,2.4,0,0,0,.37.28h0a2.5,2.5,0,0,0,3.56-1c4.39-9,17.18-36.06,17.18-46.55v-2.89C404.57,197.18,402.37,192.57,398.82,190.44Zm-22.05,29.85a10.13,10.13,0,0,1-.16-1.88c0-5.94,4.17-13.17,9.32-16.14a11.23,11.23,0,0,1,1.7-.8c4.34-1.58,7.62.91,7.62,6.18,0,5.94-4.17,13.17-9.32,16.14C381.36,226.43,377.57,224.84,376.77,220.29Z" style="fill:#455a64"></path><path d="M389,199.06a13.45,13.45,0,0,0-2.05,1c-6.23,3.59-11.27,12.33-11.27,19.51a11.62,11.62,0,0,0,.2,2.27c1,5.5,5.55,7.42,11.07,4.23,6.22-3.59,11.27-12.33,11.27-19.51C398.2,200.16,394.23,197.15,389,199.06Z" style="fill:#263238"></path><polygon points="396.3 206.39 387.41 204.02 378.51 216.67 380.86 215.31 380.86 222.74 386.03 219.76 386.03 215.61 388.78 214.02 388.78 218.17 393.95 215.19 393.95 207.75 396.3 206.39" style="fill:#3AA6B9"></polygon><path d="M442.34,215.33l-.22-.13-6.86-3.94a9.49,9.49,0,0,0-5.36-1.57,16,16,0,0,0-7.9,2.41c-10.3,5.94-18.64,21-18.64,33.7v2.88c0,12.67,17,26.44,17,26.44l6.93,3.92h0c-.23-.27-4.17-4.79-3.7-5.74,4.56-9.36,17-35.81,17-46.15v-2.88a22.8,22.8,0,0,0-.79-6.19l.8.46Zm-12.89,33.35c-4.57,2.64-8.36,1-9.16-3.5-4.33,1.58-7.61-.91-7.61-6.18,2.77-.44,9.73-12.33,9.32-16.14,4.56-2.64,8.35-1.05,9.15,3.5,4.34-1.58,7.62.91,7.62,6.18C438.77,238.48,434.6,245.71,429.45,248.68Z" style="fill:#263238"></path><path d="M442.34,215.33l-.22-.13c-3.33-1.87-7.78-1.62-12.67,1.2-7.37,4.26-13.75,13.21-16.77,22.6a36.51,36.51,0,0,0-1.87,11.1V253c0,9.76,11.05,21.08,16.14,25.77a2.4,2.4,0,0,0,.37.28h0a2.5,2.5,0,0,0,3.56-1c4.39-9,17.18-36.06,17.18-46.55v-2.89C448.09,222.07,445.89,217.46,442.34,215.33Zm-22,29.85a10.13,10.13,0,0,1-.16-1.88c0-5.94,4.17-13.17,9.32-16.14a11.23,11.23,0,0,1,1.7-.8c4.34-1.58,7.62.91,7.62,6.18,0,5.94-4.17,13.17-9.32,16.14C424.88,251.32,421.09,249.73,420.29,245.18Z" style="fill:#455a64"></path><path d="M432.5,224a13.36,13.36,0,0,0-2.05,1c-6.23,3.59-11.27,12.33-11.27,19.51a11.8,11.8,0,0,0,.2,2.28c1,5.5,5.54,7.42,11.07,4.23,6.22-3.59,11.26-12.33,11.26-19.51C441.71,225.05,437.75,222,432.5,224Z" style="fill:#263238"></path><path d="M430.36,229.62c2.13-1.23,3.86-.23,3.86,2.23a8.53,8.53,0,0,1-3.86,6.68c-2.13,1.23-3.86.23-3.86-2.23A8.53,8.53,0,0,1,430.36,229.62Z" style="fill:#3AA6B9"></path><path d="M423,252c2,.87,4.58.59,7.43-1a22.53,22.53,0,0,0,7.43-7.54v-.65c0-4-2.84-5.68-6.34-3.66l-2.19,1.26a14,14,0,0,0-6.33,11Z" style="fill:#3AA6B9"></path></g></svg>